<svg width="246" height="163" viewBox="0 0 246 163" fill="none" xmlns="http://www.w3.org/2000/svg">
<path d="M116.164 0C114.229 9.5953 112.329 18.9066 110.32 28.7905L80.0099 1.47993C77.3976 4.25047 75.0014 6.82245 72.5649 9.35057C66.4901 15.6535 60.4042 21.948 54.3073 28.2341C51.7425 30.8892 49.1895 33.5551 46.6485 36.2317C38.8354 44.4371 31.0246 52.6433 23.2162 60.8503C17.3433 66.9962 11.4181 73.0868 5.53569 79.2282C3.70471 81.1398 1.93547 83.1161 0 85.1941L86.1156 163L116.767 131.079C128.537 133.355 140.029 135.581 151.523 137.797C163.017 140.014 174.513 142.272 186.029 144.41C197.492 146.536 208.915 148.889 220.464 150.874C228.999 108.711 237.46 66.9177 246 24.7409C202.598 16.4824 159.483 8.16385 116.164 0ZM98.0158 48.8169C98.0158 48.8169 111.065 48.7569 116.302 48.803C123.382 48.8619 130.212 51.3524 135.586 55.8343C140.959 60.3161 144.53 66.5006 145.666 73.2946C146.141 76.0975 145.904 81.7332 145.168 83.7903C141.332 83.5156 133.94 82.6498 130.99 82.0749C131.916 74.793 130.278 68.5131 124.341 63.9163C120.795 61.1804 116.601 60.3423 111.927 60.684V95.5466C117.962 97.1281 124.459 93.8266 129.632 86.4616L143.745 89.0797C143.586 89.829 143.307 90.5496 142.919 91.2154C138.062 100.323 130.767 106.047 120.204 107.146C113.136 107.882 105.955 107.532 98.8113 107.652C98.5738 107.652 97.935 107.652 97.935 107.652C97.9279 88.2301 98.0158 68.4508 98.0158 48.8169ZM72.0709 83.8503C67.6252 83.9381 63.1796 83.8896 58.7316 83.8896H55.5469V107.555H42.0865V49.2671L55.3498 49.0201C55.4116 49.8443 55.6111 70.9881 55.6609 72.0825H75.3315V48.8469C79.9244 48.7361 84.2276 48.7938 88.469 48.8215L88.7896 77.5404C88.2671 77.7528 87.0679 78.1038 87.0679 78.1038C82.9347 79.4339 78.974 81.2252 75.265 83.4417C74.5383 83.9173 73.1443 83.8296 72.0709 83.8503ZM75.3719 107.518V85.4434C79.3665 82.7278 83.8754 80.8091 88.6376 79.7984V107.518H75.3719ZM202.614 107.518L199.743 73.0429L199.102 72.9344C194.949 84.2705 190.928 95.6551 186.753 107.104H178.541L166.27 73.0683L165.712 73.1099C164.762 78.7941 164.796 84.5845 164.166 90.3034C163.537 96.0222 163.216 101.725 162.741 107.573H149.089C150.908 87.9669 152.71 68.5547 154.524 48.99H169.132L182.305 82.1534L182.861 82.1926C185.357 76.7809 187.333 71.159 189.56 65.6387C191.788 60.1184 193.963 54.5981 196.195 48.9877H210.682C212.622 68.4623 214.322 87.8953 216.144 107.522L202.614 107.518Z" fill="#00619E"/>
<path d="M170.96 117.8L171.28 120.936H169.44L166.784 128.232L165.968 126.024L168.944 117.8H170.96ZM162.256 117.8L166.4 129H164.512L161.632 120.936H159.952L160.272 117.8H162.256ZM170.16 129L169.408 121.544H171.344L172.128 129H170.16ZM159.12 129L159.888 121.544H161.648L161.008 129H159.12ZM181.042 128.6C180.274 128.952 179.186 129.208 178.226 129.208C175.698 129.208 174.13 127.48 174.13 124.904C174.13 124.008 174.322 123.224 174.674 122.616H176.578C176.338 122.952 176.162 123.448 176.098 124.104L179.378 124.072C179.474 123.064 179.154 122.008 177.986 122.008H175.09C175.746 121.096 176.818 120.6 178.066 120.6C180.674 120.6 181.602 122.728 181.154 125.048C180.194 125.32 177.698 125.384 176.13 125.352C176.29 127.064 177.33 127.656 178.578 127.656C179.314 127.656 180.146 127.48 180.754 127.272L181.042 128.6ZM189.855 128.6C189.087 128.952 187.999 129.208 187.039 129.208C184.511 129.208 182.943 127.48 182.943 124.904C182.943 124.008 183.135 123.224 183.487 122.616H185.391C185.151 122.952 184.975 123.448 184.911 124.104L188.191 124.072C188.287 123.064 187.967 122.008 186.799 122.008H183.903C184.559 121.096 185.631 120.6 186.879 120.6C189.487 120.6 190.415 122.728 189.967 125.048C189.007 125.32 186.511 125.384 184.943 125.352C185.103 127.064 186.143 127.656 187.391 127.656C188.127 127.656 188.959 127.48 189.567 127.272L189.855 128.6ZM196.747 120.76V122.264H191.227V120.952L192.507 120.904L192.747 118.696L194.443 118.36V120.84L196.747 120.76ZM196.939 128.84C196.427 129 195.771 129.192 195.035 129.192C193.531 129.192 192.459 128.456 192.459 126.152V122.888H194.443V126.136C194.443 126.968 194.651 127.544 195.723 127.544C196.027 127.544 196.411 127.512 196.779 127.432L196.939 128.84Z" fill="white"/>
</svg>
