<svg width="469" height="298" viewBox="0 0 469 298" fill="none" xmlns="http://www.w3.org/2000/svg">
<path d="M221.467 0C217.777 17.5423 214.155 34.5655 210.325 52.6354L152.539 2.70564C147.559 7.77079 142.991 12.4729 138.345 17.0949C126.764 28.6181 115.161 40.1259 103.537 51.6182C98.6472 56.4723 93.7801 61.3461 88.9355 66.2396C74.0398 81.2409 59.1485 96.2436 44.2618 111.248C33.065 122.484 21.7687 133.619 10.5538 144.847C7.06305 148.342 3.68999 151.955 0 155.754L164.18 298L222.617 239.641C245.056 243.803 266.965 247.872 288.879 251.924C310.792 255.976 332.71 260.104 354.665 264.013C376.519 267.9 398.297 272.201 420.315 275.831C436.587 198.748 452.719 122.34 469 45.2318C386.254 30.1335 304.055 14.9253 221.467 0ZM186.867 89.248C186.867 89.248 211.747 89.1383 221.73 89.2227C235.228 89.3304 248.25 93.8836 258.495 102.077C268.739 110.271 275.547 121.578 277.714 133.999C278.619 139.123 278.166 149.426 276.763 153.187C269.451 152.685 255.356 151.102 249.733 150.051C251.499 136.738 248.375 125.257 237.056 116.853C230.296 111.851 222.3 110.319 213.39 110.944V174.68C224.895 177.572 237.282 171.536 247.143 158.071L274.051 162.857C273.747 164.227 273.215 165.545 272.475 166.762C263.216 183.413 249.307 193.877 229.169 195.886C215.695 197.233 202.003 196.591 188.384 196.811C187.931 196.811 186.714 196.811 186.714 196.811C186.7 161.304 186.867 125.143 186.867 89.248ZM137.403 153.297C128.928 153.457 120.452 153.369 111.972 153.369H105.9V196.634H80.238V90.0711L105.525 89.6195C105.642 91.1264 106.023 129.782 106.118 131.783H143.62V89.3029C152.376 89.1003 160.58 89.2058 168.667 89.2565L169.278 141.761C168.282 142.149 165.995 142.791 165.995 142.791C158.115 145.223 150.564 148.498 143.493 152.55C142.108 153.419 139.45 153.259 137.403 153.297ZM143.697 196.566V156.209C151.313 151.245 159.909 147.737 168.988 145.889V196.566H143.697ZM386.285 196.566L380.811 133.539L379.589 133.34C371.67 154.065 364.005 174.879 356.046 195.81H340.389L316.995 133.585L315.931 133.661C314.12 144.053 314.183 154.639 312.984 165.095C311.784 175.55 311.173 185.976 310.267 196.667H284.238C287.706 160.823 291.142 125.333 294.602 89.5646H322.451L347.565 150.195L348.625 150.266C353.383 140.372 357.15 130.094 361.397 120.002C365.644 109.91 369.791 99.8173 374.047 89.5604H401.666C405.365 125.164 408.606 160.692 412.079 196.574L386.285 196.566Z" fill="#F4FAFF"/>
<path d="M291.44 212.2L291.92 216.904H289.16L285.176 227.848L283.952 224.536L288.416 212.2H291.44ZM278.384 212.2L284.6 229H281.768L277.448 216.904H274.928L275.408 212.2H278.384ZM290.24 229L289.112 217.816H292.016L293.192 229H290.24ZM273.68 229L274.832 217.816H277.472L276.512 229H273.68ZM306.563 228.4C305.411 228.928 303.779 229.312 302.339 229.312C298.547 229.312 296.195 226.72 296.195 222.856C296.195 221.512 296.483 220.336 297.011 219.424H299.867C299.507 219.928 299.243 220.672 299.147 221.656L304.067 221.608C304.211 220.096 303.731 218.512 301.979 218.512H297.635C298.619 217.144 300.227 216.4 302.099 216.4C306.011 216.4 307.403 219.592 306.731 223.072C305.291 223.48 301.547 223.576 299.195 223.528C299.435 226.096 300.995 226.984 302.867 226.984C303.971 226.984 305.219 226.72 306.131 226.408L306.563 228.4ZM319.782 228.4C318.63 228.928 316.998 229.312 315.558 229.312C311.766 229.312 309.414 226.72 309.414 222.856C309.414 221.512 309.702 220.336 310.23 219.424H313.086C312.726 219.928 312.462 220.672 312.366 221.656L317.286 221.608C317.43 220.096 316.95 218.512 315.198 218.512H310.854C311.838 217.144 313.446 216.4 315.318 216.4C319.23 216.4 320.622 219.592 319.95 223.072C318.51 223.48 314.766 223.576 312.414 223.528C312.654 226.096 314.214 226.984 316.086 226.984C317.19 226.984 318.438 226.72 319.35 226.408L319.782 228.4ZM330.121 216.64V218.896H321.841V216.928L323.761 216.856L324.121 213.544L326.665 213.04V216.76L330.121 216.64ZM330.409 228.76C329.641 229 328.657 229.288 327.553 229.288C325.297 229.288 323.689 228.184 323.689 224.728V219.832H326.665V224.704C326.665 225.952 326.977 226.816 328.585 226.816C329.041 226.816 329.617 226.768 330.169 226.648L330.409 228.76Z" fill="#00619E"/>
</svg>
